# xmcd
#
# Track frame offsets: 
#        150
#        13809
#        30931
#        43652
#        60988
#        83481
#        99769
#        109845
#        120188
#        134257
#        147313
#        159100
#        180733
#        194186
#        200933
#        207297
#        223582
#        238873
#        252222
#        262950
#        278339
#        296089
#        313057
#        323560
#        331184
#
# Disc length: 4590 seconds
#
# Revision: 4
# Processed by: cddbd v1.5.2PL0 Copyright (c) Steve Scherf et al.
# Submitted via: ExactAudioCopy v1.1
#
DISCID=6011ec19
DTITLE=Alexis Korner's Blues Incorporated - Sky High
DYEAR=2007
DGENRE=Blues
TTITLE0=Long Black Train (mono)
TTITLE1=Rock Me (mono)
TTITLE2=I'm So Glad (You're Mine) (mono)
TTITLE3=Wednesday Night Prayer Meeting (mono)
TTITLE4=Honesty (mono)
TTITLE5=Yellow Dog Blues (mono)
TTITLE6=Let the Good Times Roll (mono)
TTITLE7=Ooo-Wee Baby (mono)
TTITLE8=River's Invitation (mono)
TTITLE9=Money Honey (mono)
TTITLE10=Big Road Blues (mono)
TTITLE11=Louise (mono)
TTITLE12=Floating (mono)
TTITLE13=Anchor Five Miles (mono)
TTITLE14=Daph's Dance (mono)
TTITLE15=I Got A Woman (BBC 04-65 Rhythm and Blues) (mono)
TTITLE16=Oh Lord, Don't Let Them Drop That Atomic Bomb On Me (BBC 05-6
TTITLE16=5 Jazz Club) (mono)
TTITLE17=Blues A La King (BBC 05-65 Jazz Club) (mono)
TTITLE18=The Organiser (BBC 12-10-65 Band Beat) (mono)
TTITLE19=Watermelon Man (BBC 12-10-65 Band Beat) (mono)
TTITLE20=Back At The Chicken Shack (BBC 12-10-65 Band Beat) (mono)
TTITLE21=Trouble In Mind (BBC 12-10-65 Band Beat) (mono)
TTITLE22=The Jailbird (BBC 12-10-65 Band Beat) (mono)
TTITLE23=Going Down Slow (BBC 01-22-66 Jazz Beat) (mono)
TTITLE24=Ramblin' (BBC 01-22-66 Jazz Beat) (mono)
EXTD=
EXTT0=
EXTT1=
EXTT2=
EXTT3=
EXTT4=
EXTT5=
EXTT6=
EXTT7=
EXTT8=
EXTT9=
EXTT10=
EXTT11=
EXTT12=
EXTT13=
EXTT14=
EXTT15=
EXTT16=
EXTT17=
EXTT18=
EXTT19=
EXTT20=
EXTT21=
EXTT22=
EXTT23=
EXTT24=
PLAYORDER=
